<mxfile host="Electron" agent="Mozilla/5.0 (Windows NT 10.0; Win64; x64) AppleWebKit/537.36 (KHTML, like Gecko) draw.io/26.0.16 Chrome/132.0.6834.196 Electron/34.2.0 Safari/537.36" version="26.0.16">
  <diagram name="Page-1" id="BIdwvoWF0eP6jvPpvDIi">
    <mxGraphModel dx="1674" dy="844" grid="1" gridSize="10" guides="1" tooltips="1" connect="1" arrows="1" fold="1" page="1" pageScale="1" pageWidth="1654" pageHeight="1169" math="0" shadow="0">
      <root>
        <mxCell id="0" />
        <mxCell id="1" parent="0" />
        <mxCell id="b-VYJYKw4jbXuGDxH99n-12" style="edgeStyle=orthogonalEdgeStyle;rounded=0;orthogonalLoop=1;jettySize=auto;html=1;exitX=0.5;exitY=1;exitDx=0;exitDy=0;" edge="1" parent="1" source="Q0nuIfeI3BXdC_2CShaq-1">
          <mxGeometry relative="1" as="geometry">
            <mxPoint x="460" y="550" as="targetPoint" />
          </mxGeometry>
        </mxCell>
        <mxCell id="Q0nuIfeI3BXdC_2CShaq-1" value="0" style="ellipse;whiteSpace=wrap;html=1;aspect=fixed;" parent="1" vertex="1">
          <mxGeometry x="420" y="370" width="80" height="80" as="geometry" />
        </mxCell>
        <mxCell id="Q0nuIfeI3BXdC_2CShaq-2" value="" style="endArrow=classic;html=1;rounded=0;entryX=0;entryY=0.5;entryDx=0;entryDy=0;" parent="1" edge="1" target="Q0nuIfeI3BXdC_2CShaq-1">
          <mxGeometry width="50" height="50" relative="1" as="geometry">
            <mxPoint x="300" y="410" as="sourcePoint" />
            <mxPoint x="730" y="410" as="targetPoint" />
          </mxGeometry>
        </mxCell>
        <mxCell id="b-VYJYKw4jbXuGDxH99n-1" value="START" style="text;html=1;align=center;verticalAlign=middle;resizable=0;points=[];autosize=1;strokeColor=none;fillColor=none;" vertex="1" parent="1">
          <mxGeometry x="320" y="380" width="60" height="30" as="geometry" />
        </mxCell>
        <mxCell id="b-VYJYKw4jbXuGDxH99n-2" value="" style="endArrow=classic;html=1;rounded=0;exitX=1;exitY=0.5;exitDx=0;exitDy=0;" edge="1" parent="1" source="Q0nuIfeI3BXdC_2CShaq-1">
          <mxGeometry width="50" height="50" relative="1" as="geometry">
            <mxPoint x="680" y="460" as="sourcePoint" />
            <mxPoint x="590" y="410" as="targetPoint" />
          </mxGeometry>
        </mxCell>
        <mxCell id="b-VYJYKw4jbXuGDxH99n-3" value="parcheaza" style="text;html=1;align=center;verticalAlign=middle;resizable=0;points=[];autosize=1;strokeColor=none;fillColor=none;" vertex="1" parent="1">
          <mxGeometry x="500" y="380" width="80" height="30" as="geometry" />
        </mxCell>
        <mxCell id="b-VYJYKw4jbXuGDxH99n-13" style="edgeStyle=orthogonalEdgeStyle;rounded=0;orthogonalLoop=1;jettySize=auto;html=1;exitX=0.5;exitY=1;exitDx=0;exitDy=0;" edge="1" parent="1" source="b-VYJYKw4jbXuGDxH99n-4">
          <mxGeometry relative="1" as="geometry">
            <mxPoint x="630" y="550" as="targetPoint" />
          </mxGeometry>
        </mxCell>
        <mxCell id="b-VYJYKw4jbXuGDxH99n-4" value="1" style="ellipse;whiteSpace=wrap;html=1;aspect=fixed;" vertex="1" parent="1">
          <mxGeometry x="590" y="370" width="80" height="80" as="geometry" />
        </mxCell>
        <mxCell id="b-VYJYKw4jbXuGDxH99n-5" value="" style="endArrow=classic;html=1;rounded=0;exitX=1;exitY=0.5;exitDx=0;exitDy=0;" edge="1" parent="1" source="b-VYJYKw4jbXuGDxH99n-4" target="b-VYJYKw4jbXuGDxH99n-6">
          <mxGeometry width="50" height="50" relative="1" as="geometry">
            <mxPoint x="680" y="460" as="sourcePoint" />
            <mxPoint x="740" y="410" as="targetPoint" />
          </mxGeometry>
        </mxCell>
        <mxCell id="b-VYJYKw4jbXuGDxH99n-14" style="edgeStyle=orthogonalEdgeStyle;rounded=0;orthogonalLoop=1;jettySize=auto;html=1;exitX=0.5;exitY=1;exitDx=0;exitDy=0;" edge="1" parent="1" source="b-VYJYKw4jbXuGDxH99n-6">
          <mxGeometry relative="1" as="geometry">
            <mxPoint x="810" y="550" as="targetPoint" />
          </mxGeometry>
        </mxCell>
        <mxCell id="b-VYJYKw4jbXuGDxH99n-6" value="2" style="ellipse;whiteSpace=wrap;html=1;aspect=fixed;" vertex="1" parent="1">
          <mxGeometry x="770" y="370" width="80" height="80" as="geometry" />
        </mxCell>
        <mxCell id="b-VYJYKw4jbXuGDxH99n-7" value="parcheaza" style="text;html=1;align=center;verticalAlign=middle;resizable=0;points=[];autosize=1;strokeColor=none;fillColor=none;" vertex="1" parent="1">
          <mxGeometry x="680" y="380" width="80" height="30" as="geometry" />
        </mxCell>
        <mxCell id="b-VYJYKw4jbXuGDxH99n-8" value="" style="endArrow=classic;html=1;rounded=0;exitX=1;exitY=0.5;exitDx=0;exitDy=0;" edge="1" parent="1" source="b-VYJYKw4jbXuGDxH99n-6">
          <mxGeometry width="50" height="50" relative="1" as="geometry">
            <mxPoint x="680" y="460" as="sourcePoint" />
            <mxPoint x="1030" y="410" as="targetPoint" />
          </mxGeometry>
        </mxCell>
        <mxCell id="b-VYJYKw4jbXuGDxH99n-9" value=". . .&amp;nbsp; . . . . . . . . . ." style="text;html=1;align=center;verticalAlign=middle;resizable=0;points=[];autosize=1;strokeColor=none;fillColor=none;" vertex="1" parent="1">
          <mxGeometry x="880" y="380" width="110" height="30" as="geometry" />
        </mxCell>
        <mxCell id="b-VYJYKw4jbXuGDxH99n-15" style="edgeStyle=orthogonalEdgeStyle;rounded=0;orthogonalLoop=1;jettySize=auto;html=1;exitX=0.5;exitY=1;exitDx=0;exitDy=0;" edge="1" parent="1" source="b-VYJYKw4jbXuGDxH99n-10">
          <mxGeometry relative="1" as="geometry">
            <mxPoint x="1070" y="540" as="targetPoint" />
          </mxGeometry>
        </mxCell>
        <mxCell id="b-VYJYKw4jbXuGDxH99n-10" value="n" style="ellipse;whiteSpace=wrap;html=1;aspect=fixed;" vertex="1" parent="1">
          <mxGeometry x="1030" y="370" width="80" height="80" as="geometry" />
        </mxCell>
        <mxCell id="b-VYJYKw4jbXuGDxH99n-11" value="" style="endArrow=classic;startArrow=classic;html=1;rounded=0;" edge="1" parent="1">
          <mxGeometry width="50" height="50" relative="1" as="geometry">
            <mxPoint x="430" y="550" as="sourcePoint" />
            <mxPoint x="1110" y="540" as="targetPoint" />
          </mxGeometry>
        </mxCell>
        <mxCell id="b-VYJYKw4jbXuGDxH99n-16" value="scoate&amp;nbsp;" style="text;html=1;align=center;verticalAlign=middle;resizable=0;points=[];autosize=1;strokeColor=none;fillColor=none;" vertex="1" parent="1">
          <mxGeometry x="500" y="510" width="60" height="30" as="geometry" />
        </mxCell>
        <mxCell id="b-VYJYKw4jbXuGDxH99n-18" value="scoate&amp;nbsp;" style="text;html=1;align=center;verticalAlign=middle;resizable=0;points=[];autosize=1;strokeColor=none;fillColor=none;" vertex="1" parent="1">
          <mxGeometry x="690" y="510" width="60" height="30" as="geometry" />
        </mxCell>
        <mxCell id="b-VYJYKw4jbXuGDxH99n-19" value="scoate&amp;nbsp;" style="text;html=1;align=center;verticalAlign=middle;resizable=0;points=[];autosize=1;strokeColor=none;fillColor=none;" vertex="1" parent="1">
          <mxGeometry x="920" y="510" width="60" height="30" as="geometry" />
        </mxCell>
      </root>
    </mxGraphModel>
  </diagram>
</mxfile>
